# xmcd
#
# Track frame offsets: 
#        150
#        10075
#        29628
#
# Disc length: 776 seconds
#
# Revision: 0
# Processed by: cddbd v1.5.2PL0 Copyright (c) Steve Scherf et al.
# Submitted via: ExactAudioCopy v1.0b1
#
DISCID=1b030603
DTITLE=Jane Weaver - Cupboard Love
DYEAR=1998
DGENRE=Folk
TTITLE0=Cupboard Love
TTITLE1=Oh I'm in a mink
TTITLE2=Gutter Girl (Andy Votel mix)
EXTD=
EXTT0=
EXTT1=
EXTT2=
PLAYORDER=
